<svg xmlns="http://www.w3.org/2000/svg" viewBox="0 0 1001.95 1000.98"><defs><style>.cls-1{fill:#f0f0f0;}</style></defs><title>Asset 2</title><g id="Layer_2" data-name="Layer 2"><g id="Layer_1-2" data-name="Layer 1"><path class="cls-1" d="M886.77,0a42.62,42.62,0,0,1-3.91,5.32Q530.8,357.49,178.69,709.57,91.87,796.39,5,883.17a36.78,36.78,0,0,1-5,3.57Q0,750,0,613.3a26.4,26.4,0,0,0,4.3-2.89q303.1-303,606.1-606.1A26.31,26.31,0,0,0,613.33,0Z" transform="translate(-0.05 -0.02)"/><path class="cls-1" d="M115.28,1001a26.27,26.27,0,0,1,2.88-4.28Q557.4,557.38,996.76,118.16c1.36-1.36,3.47-1.95,5.24-2.9V387.72a26.62,26.62,0,0,0-4.3,2.9q-303.09,303-606.09,606.09a26.51,26.51,0,0,0-2.89,4.29Z" transform="translate(-0.05 -0.02)"/><path class="cls-1" d="M386.77,0a26.47,26.47,0,0,1-2.89,4.3Q194.16,194.13,4.35,383.84A26.5,26.5,0,0,1,0,386.74Q0,250,0,113.3a26.43,26.43,0,0,0,4.3-2.89q53.11-53,106.1-106.1A26.42,26.42,0,0,0,113.33,0Z" transform="translate(-0.05 -0.02)"/><path class="cls-1" d="M615.28,1001a26.51,26.51,0,0,1,2.89-4.29Q807.4,807.38,996.75,618.18c1.36-1.36,3.49-2,5.25-2.92V887.72a26.66,26.66,0,0,0-4.29,2.89q-53.1,53-106.09,106.09a26.68,26.68,0,0,0-2.9,4.29Z" transform="translate(-0.05 -0.02)"/></g></g></svg>